{
  "source": "C:\\Users\\Peter\\Desktop\\stuff\\MIUN\\quantitative_research\\video_compression\\videos\\BVI-HD\\BVI-HD_CDVL_videos\\ORIG\\TreeGrassFamily_1920x1080_30fps.mp4",
  "output": "C:\\Users\\Peter\\Desktop\\stuff\\MIUN\\quantitative_research\\video_compression\\compressed_videos\\BVI-HD\\hevc\\1.5\\TreeGrassFamily_1920x1080_30fps_hevc.mp4",
  "codec": "hevc",
  "ok": "Input #0, mov,mp4,m4a,3gp,3g2,mj2, from 'C:\\Users\\Peter\\Desktop\\stuff\\MIUN\\quantitative_research\\video_compression\\videos\\BVI-HD\\BVI-HD_CDVL_videos\\ORIG\\TreeGrassFamily_1920x1080_30fps.mp4':\n  Metadata:\n    major_brand     : isom\n    minor_version   : 512\n    compatible_brands: isomiso2avc1mp41\n    encoder         : Lavf54.28.101\n  Duration: 00:00:05.00, start: 0.000000, bitrate: 331787 kb/s\n  Stream #0:0[0x1](und): Video: h264 (High 4:4:4 Predictive) (avc1 / 0x31637661), yuv420p(progressive), 1920x1080, 331784 kb/s, 30 fps, 30 tbr, 30 tbn (default)\n    Metadata:\n      handler_name    : VideoHandler\n      vendor_id       : [0][0][0][0]\n[out#0/mp4 @ 00000263b362ab00] Codec AVOption b:a (set bitrate (in bits/s)) has not been used for any stream. The most likely reason is either wrong type (e.g. a video option with no video streams) or that it is a private option of some decoder which was not actually used for any stream.\nStream mapping:\n  Stream #0:0 -> #0:0 (h264 (native) -> hevc (libx265))\nPress [q] to stop, [?] for help\n[libx265 @ 00000263b42ff040] Unknown option: \"aq-mode.\nx265 [info]: HEVC encoder version 4.1+190-8f11c33ac\nx265 [info]: build info [Windows][GCC 15.1.0][64 bit] 10bit\nx265 [info]: using cpu capabilities: MMX2 SSE2Fast LZCNT SSSE3 SSE4.2 AVX FMA3 BMI2 AVX2\nx265 [info]: Main 10 profile, Level-4 (Main tier)\nx265 [info]: Thread pool created using 12 threads\nx265 [info]: Slices                              : 1\nx265 [info]: frame threads / pool features       : 3 / wpp(17 rows)\nx265 [info]: Coding QT: max CU size, min CU size : 64 / 8\nx265 [info]: Residual QT: max TU size, max depth : 32 / 1 inter / 1 intra\nx265 [info]: ME / range / subpel / merge         : star / 57 / 3 / 3\nx265 [info]: Keyframe min / max / scenecut / bias  : 25 / 250 / 40 / 5.00 \nx265 [info]: Lookahead / bframes / badapt        : 25 / 4 / 2\nx265 [info]: b-pyramid / weightp / weightb       : 1 / 1 / 0\nx265 [info]: References / ref-limit  cu / depth  : 4 / on / on\nx265 [info]: AQ: mode / str / qg-size / cu-tree  : 2 / 1.0 / 32 / 1\nx265 [info]: Rate Control / qCompress            : ABR-1500 kbps / 0.60\nx265 [info]: VBV/HRD buffer / max-rate / init    : 1500 / 1500 / 0.750\nx265 [info]: tools: rect limit-modes rd=4 psy-rd=2.00 rdoq=2 psy-rdoq=1.00\nx265 [info]: tools: rskip mode=1 signhide tmvp strong-intra-smoothing lslices=4\nx265 [info]: tools: deblock sao dhdr10-info\nOutput #0, mp4, to 'C:\\Users\\Peter\\Desktop\\stuff\\MIUN\\quantitative_research\\video_compression\\compressed_videos\\BVI-HD\\hevc\\1.5\\TreeGrassFamily_1920x1080_30fps_hevc.mp4':\n  Metadata:\n    major_brand     : isom\n    minor_version   : 512\n    compatible_brands: isomiso2avc1mp41\n    encoder         : Lavf62.3.100\n  Stream #0:0(und): Video: hevc (hev1 / 0x31766568), yuv420p10le(tv, progressive), 1920x1080, q=2-31, 1500 kb/s, 30 fps, 15360 tbn (default)\n    Metadata:\n      encoder         : Lavc62.11.100 libx265\n      handler_name    : VideoHandler\n      vendor_id       : [0][0][0][0]\n    Side data:\n      cpb: bitrate max/min/avg: 1500000/0/1500000 buffer size: 1500000 vbv_delay: N/A\nframe=    0 fps=0.0 q=0.0 size=       0KiB time=N/A bitrate=N/A speed=N/A elapsed=0:00:00.51    \nframe=    0 fps=0.0 q=0.0 size=       0KiB time=N/A bitrate=N/A speed=N/A elapsed=0:00:01.04    \nframe=    0 fps=0.0 q=0.0 size=       0KiB time=N/A bitrate=N/A speed=N/A elapsed=0:00:01.55    \nframe=    0 fps=0.0 q=0.0 size=       0KiB time=N/A bitrate=N/A speed=N/A elapsed=0:00:02.08    \nframe=    0 fps=0.0 q=0.0 size=       0KiB time=N/A bitrate=N/A speed=N/A elapsed=0:00:02.60    \nframe=    0 fps=0.0 q=0.0 size=       0KiB time=N/A bitrate=N/A speed=N/A elapsed=0:00:03.12    \nframe=    0 fps=0.0 q=0.0 size=       0KiB time=N/A bitrate=N/A speed=N/A elapsed=0:00:03.65    \nframe=    0 fps=0.0 q=0.0 size=       0KiB time=N/A bitrate=N/A speed=N/A elapsed=0:00:04.16    \nframe=    0 fps=0.0 q=0.0 size=       0KiB time=N/A bitrate=N/A speed=N/A elapsed=0:00:04.68    \nframe=    0 fps=0.0 q=0.0 size=       0KiB time=N/A bitrate=N/A speed=N/A elapsed=0:00:05.19    \nframe=    0 fps=0.0 q=0.0 size=       0KiB time=N/A bitrate=N/A speed=N/A elapsed=0:00:05.71    \nframe=    0 fps=0.0 q=0.0 size=       0KiB time=N/A bitrate=N/A speed=N/A elapsed=0:00:06.25    \nframe=    0 fps=0.0 q=0.0 size=       0KiB time=N/A bitrate=N/A speed=N/A elapsed=0:00:06.78    \nframe=    0 fps=0.0 q=0.0 size=       0KiB time=N/A bitrate=N/A speed=N/A elapsed=0:00:07.30    \nframe=    1 fps=0.1 q=43.7 size=       0KiB time=-00:00:00.03 bitrate=N/A speed=N/A elapsed=0:00:07.81    \nframe=    2 fps=0.2 q=49.2 size=       0KiB time=00:00:00.00 bitrate=N/A speed=   0x elapsed=0:00:08.32    \nframe=    4 fps=0.5 q=51.0 size=       0KiB time=00:00:00.06 bitrate=   5.3kbits/s speed=0.00754x elapsed=0:00:08.84    \nframe=    4 fps=0.4 q=51.0 size=       0KiB time=00:00:00.06 bitrate=   5.3kbits/s speed=0.00712x elapsed=0:00:09.36    \nframe=    5 fps=0.5 q=51.0 size=       0KiB time=00:00:00.10 bitrate=   3.5kbits/s speed=0.0101x elapsed=0:00:09.88    \nframe=    5 fps=0.5 q=51.0 size=       0KiB time=00:00:00.10 bitrate=   3.5kbits/s speed=0.00962x elapsed=0:00:10.39    \nframe=    6 fps=0.5 q=50.9 size=       0KiB time=00:00:00.13 bitrate=   2.6kbits/s speed=0.0122x elapsed=0:00:10.95    \nframe=    6 fps=0.5 q=50.9 size=       0KiB time=00:00:00.13 bitrate=   2.6kbits/s speed=0.0115x elapsed=0:00:11.54    \nframe=    6 fps=0.5 q=50.9 size=       0KiB time=00:00:00.13 bitrate=   2.6kbits/s speed=0.011x elapsed=0:00:12.09    \nframe=    7 fps=0.6 q=44.3 size=       0KiB time=00:00:00.16 bitrate=   2.1kbits/s speed=0.0132x elapsed=0:00:12.60    \nframe=    8 fps=0.6 q=46.9 size=       0KiB time=00:00:00.20 bitrate=   1.8kbits/s speed=0.0152x elapsed=0:00:13.13    \nframe=    8 fps=0.6 q=46.9 size=       0KiB time=00:00:00.20 bitrate=   1.8kbits/s speed=0.0146x elapsed=0:00:13.67    \nframe=    8 fps=0.6 q=46.9 size=       0KiB time=00:00:00.20 bitrate=   1.8kbits/s speed=0.0141x elapsed=0:00:14.20    \nframe=    8 fps=0.5 q=46.9 size=       0KiB time=00:00:00.20 bitrate=   1.8kbits/s speed=0.0136x elapsed=0:00:14.75    \nframe=    8 fps=0.5 q=46.9 size=       0KiB time=00:00:00.20 bitrate=   1.8kbits/s speed=0.0131x elapsed=0:00:15.26    \nframe=    9 fps=0.6 q=47.1 size=       0KiB time=00:00:00.23 bitrate=   1.5kbits/s speed=0.0147x elapsed=0:00:15.82    \nframe=    9 fps=0.5 q=47.1 size=       0KiB time=00:00:00.23 bitrate=   1.5kbits/s speed=0.0143x elapsed=0:00:16.36    \nframe=   10 fps=0.6 q=48.8 size=       0KiB time=00:00:00.26 bitrate=   1.3kbits/s speed=0.0158x elapsed=0:00:16.89    \nframe=   10 fps=0.6 q=48.8 size=       0KiB time=00:00:00.26 bitrate=   1.3kbits/s speed=0.0153x elapsed=0:00:17.42    \nframe=   10 fps=0.6 q=48.8 size=       0KiB time=00:00:00.26 bitrate=   1.3kbits/s speed=0.0148x elapsed=0:00:17.97    \nframe=   10 fps=0.5 q=48.8 size=       0KiB time=00:00:00.26 bitrate=   1.3kbits/s speed=0.0144x elapsed=0:00:18.51    \nframe=   12 fps=0.6 q=46.8 size=       0KiB time=00:00:00.33 bitrate=   1.1kbits/s speed=0.0175x elapsed=0:00:19.03    \nframe=   12 fps=0.6 q=46.8 size=       0KiB time=00:00:00.33 bitrate=   1.1kbits/s speed=0.017x elapsed=0:00:19.58    \nframe=   12 fps=0.6 q=46.8 size=       0KiB time=00:00:00.33 bitrate=   1.1kbits/s speed=0.0166x elapsed=0:00:20.13    \nframe=   12 fps=0.6 q=46.8 size=       0KiB time=00:00:00.33 bitrate=   1.1kbits/s speed=0.0161x elapsed=0:00:20.66    \nframe=   13 fps=0.6 q=49.0 size=       0KiB time=00:00:00.36 bitrate=   1.0kbits/s speed=0.0173x elapsed=0:00:21.17    \nframe=   13 fps=0.6 q=49.0 size=       0KiB time=00:00:00.36 bitrate=   1.0kbits/s speed=0.0169x elapsed=0:00:21.69    \nframe=   13 fps=0.6 q=49.0 size=       0KiB time=00:00:00.36 bitrate=   1.0kbits/s speed=0.0165x elapsed=0:00:22.21    \nframe=   13 fps=0.6 q=49.0 size=       0KiB time=00:00:00.36 bitrate=   1.0kbits/s speed=0.0161x elapsed=0:00:22.72    \nframe=   14 fps=0.6 q=48.9 size=       0KiB time=00:00:00.40 bitrate=   0.9kbits/s speed=0.0172x elapsed=0:00:23.25    \nframe=   15 fps=0.6 q=42.2 size=       0KiB time=00:00:00.43 bitrate=   0.8kbits/s speed=0.0182x elapsed=0:00:23.79    \nframe=   16 fps=0.7 q=45.9 size=       0KiB time=00:00:00.46 bitrate=   0.8kbits/s speed=0.0192x elapsed=0:00:24.34    \nframe=   17 fps=0.7 q=48.2 size=       0KiB time=00:00:00.50 bitrate=   0.7kbits/s speed=0.0201x elapsed=0:00:24.85    \nframe=   17 fps=0.7 q=48.2 size=       0KiB time=00:00:00.50 bitrate=   0.7kbits/s speed=0.0197x elapsed=0:00:25.36    \nframe=   17 fps=0.7 q=48.2 size=       0KiB time=00:00:00.50 bitrate=   0.7kbits/s speed=0.0193x elapsed=0:00:25.91    \nframe=   17 fps=0.6 q=48.2 size=       0KiB time=00:00:00.50 bitrate=   0.7kbits/s speed=0.0189x elapsed=0:00:26.43    \nframe=   17 fps=0.6 q=48.2 size=       0KiB time=00:00:00.50 bitrate=   0.7kbits/s speed=0.0186x elapsed=0:00:26.94    \nframe=   18 fps=0.7 q=48.1 size=       0KiB time=00:00:00.53 bitrate=   0.7kbits/s speed=0.0194x elapsed=0:00:27.47    \nframe=   18 fps=0.6 q=48.1 size=       0KiB time=00:00:00.53 bitrate=   0.7kbits/s speed=0.019x elapsed=0:00:28.01    \nframe=   18 fps=0.6 q=48.1 size=       0KiB time=00:00:00.53 bitrate=   0.7kbits/s speed=0.0187x elapsed=0:00:28.52    \nframe=   19 fps=0.7 q=42.2 size=       0KiB time=00:00:00.56 bitrate=   0.6kbits/s speed=0.0195x elapsed=0:00:29.05    \nframe=   20 fps=0.7 q=45.7 size=       0KiB time=00:00:00.60 bitrate=   0.6kbits/s speed=0.0203x elapsed=0:00:29.57    \nframe=   20 fps=0.7 q=45.7 size=       0KiB time=00:00:00.60 bitrate=   0.6kbits/s speed=0.0199x elapsed=0:00:30.09    \nframe=   21 fps=0.7 q=48.1 size=       0KiB time=00:00:00.63 bitrate=   0.6kbits/s speed=0.0207x elapsed=0:00:30.62    \nframe=   21 fps=0.7 q=48.1 size=       0KiB time=00:00:00.63 bitrate=   0.6kbits/s speed=0.0203x elapsed=0:00:31.13    \nframe=   22 fps=0.7 q=48.0 size=       0KiB time=00:00:00.66 bitrate=   0.5kbits/s speed=0.0211x elapsed=0:00:31.65    \nframe=   22 fps=0.7 q=48.0 size=       0KiB time=00:00:00.66 bitrate=   0.5kbits/s speed=0.0207x elapsed=0:00:32.17    \nframe=   22 fps=0.7 q=48.0 size=       0KiB time=00:00:00.66 bitrate=   0.5kbits/s speed=0.0204x elapsed=0:00:32.74    \nframe=   22 fps=0.7 q=48.0 size=       0KiB time=00:00:00.66 bitrate=   0.5kbits/s speed=0.02x elapsed=0:00:33.30    \nframe=   22 fps=0.6 q=48.0 size=       0KiB time=00:00:00.66 bitrate=   0.5kbits/s speed=0.0197x elapsed=0:00:33.90    \nframe=   24 fps=0.7 q=46.0 size=       0KiB time=00:00:00.73 bitrate=   0.5kbits/s speed=0.0213x elapsed=0:00:34.43    \nframe=   24 fps=0.7 q=46.0 size=       0KiB time=00:00:00.73 bitrate=   0.5kbits/s speed=0.021x elapsed=0:00:34.97    \nframe=   25 fps=0.7 q=48.0 size=       0KiB time=00:00:00.76 bitrate=   0.5kbits/s speed=0.0216x elapsed=0:00:35.48    \nframe=   25 fps=0.7 q=48.0 size=       0KiB time=00:00:00.76 bitrate=   0.5kbits/s speed=0.0213x elapsed=0:00:36.00    \nframe=   25 fps=0.7 q=48.0 size=       0KiB time=00:00:00.76 bitrate=   0.5kbits/s speed=0.021x elapsed=0:00:36.54    \nframe=   26 fps=0.7 q=48.0 size=       0KiB time=00:00:00.80 bitrate=   0.4kbits/s speed=0.0216x elapsed=0:00:37.07    \nframe=   26 fps=0.7 q=48.0 size=       0KiB time=00:00:00.80 bitrate=   0.4kbits/s speed=0.0213x elapsed=0:00:37.60    \nframe=   26 fps=0.7 q=48.0 size=       0KiB time=00:00:00.80 bitrate=   0.4kbits/s speed=0.021x elapsed=0:00:38.12    \nframe=   26 fps=0.7 q=48.0 size=       0KiB time=00:00:00.80 bitrate=   0.4kbits/s speed=0.0207x elapsed=0:00:38.66    \nframe=   27 fps=0.7 q=42.2 size=       0KiB time=00:00:00.83 bitrate=   0.4kbits/s speed=0.0213x elapsed=0:00:39.18    \nframe=   28 fps=0.7 q=45.6 size=       0KiB time=00:00:00.86 bitrate=   0.4kbits/s speed=0.0218x elapsed=0:00:39.72    \nframe=   28 fps=0.7 q=45.6 size=       0KiB time=00:00:00.86 bitrate=   0.4kbits/s speed=0.0215x elapsed=0:00:40.25    \nframe=   29 fps=0.7 q=48.0 size=       0KiB time=00:00:00.90 bitrate=   0.4kbits/s speed=0.0221x elapsed=0:00:40.77    \nframe=   29 fps=0.7 q=48.0 size=       0KiB time=00:00:00.90 bitrate=   0.4kbits/s speed=0.0218x elapsed=0:00:41.29    \nframe=   29 fps=0.7 q=48.0 size=       0KiB time=00:00:00.90 bitrate=   0.4kbits/s speed=0.0215x elapsed=0:00:41.80    \nframe=   30 fps=0.7 q=48.1 size=       0KiB time=00:00:00.93 bitrate=   0.4kbits/s speed=0.022x elapsed=0:00:42.33    \nframe=   31 fps=0.7 q=42.4 size=       0KiB time=00:00:00.96 bitrate=   0.4kbits/s speed=0.0226x elapsed=0:00:42.86    \nframe=   31 fps=0.7 q=42.4 size=       0KiB time=00:00:00.96 bitrate=   0.4kbits/s speed=0.0223x elapsed=0:00:43.39    \nframe=   32 fps=0.7 q=45.8 size=       0KiB time=00:00:01.00 bitrate=   0.4kbits/s speed=0.0228x elapsed=0:00:43.91    \nframe=   33 fps=0.7 q=47.9 size=       0KiB time=00:00:01.03 bitrate=   0.3kbits/s speed=0.0233x elapsed=0:00:44.42    \nframe=   33 fps=0.7 q=47.9 size=       0KiB time=00:00:01.03 bitrate=   0.3kbits/s speed=0.023x elapsed=0:00:44.94    \nframe=   33 fps=0.7 q=47.9 size=       0KiB time=00:00:01.03 bitrate=   0.3kbits/s speed=0.0227x elapsed=0:00:45.46    \nframe=   33 fps=0.7 q=47.9 size=       0KiB time=00:00:01.03 bitrate=   0.3kbits/s speed=0.0225x elapsed=0:00:45.98    \nframe=   34 fps=0.7 q=48.0 size=       0KiB time=00:00:01.06 bitrate=   0.3kbits/s speed=0.0229x elapsed=0:00:46.49    \nframe=   35 fps=0.7 q=42.1 size=       0KiB time=00:00:01.10 bitrate=   0.3kbits/s speed=0.0234x elapsed=0:00:47.01    \nframe=   36 fps=0.8 q=45.9 size=       0KiB time=00:00:01.13 bitrate=   0.3kbits/s speed=0.0238x elapsed=0:00:47.52    \nframe=   36 fps=0.7 q=45.9 size=       0KiB time=00:00:01.13 bitrate=   0.3kbits/s speed=0.0236x elapsed=0:00:48.04    \nframe=   37 fps=0.8 q=48.0 size=       0KiB time=00:00:01.16 bitrate=   0.3kbits/s speed=0.024x elapsed=0:00:48.55    \nframe=   37 fps=0.8 q=48.0 size=       0KiB time=00:00:01.16 bitrate=   0.3kbits/s speed=0.0238x elapsed=0:00:49.08    \nframe=   38 fps=0.8 q=48.0 size=       0KiB time=00:00:01.20 bitrate=   0.3kbits/s speed=0.0242x elapsed=0:00:49.60    \nframe=   38 fps=0.8 q=48.0 size=       0KiB time=00:00:01.20 bitrate=   0.3kbits/s speed=0.0239x elapsed=0:00:50.12    \nframe=   40 fps=0.8 q=46.0 size=       0KiB time=00:00:01.26 bitrate=   0.3kbits/s speed=0.025x elapsed=0:00:50.66    \nframe=   40 fps=0.8 q=46.0 size=       0KiB time=00:00:01.26 bitrate=   0.3kbits/s speed=0.0248x elapsed=0:00:51.16    \nframe=   40 fps=0.8 q=46.0 size=       0KiB time=00:00:01.26 bitrate=   0.3kbits/s speed=0.0245x elapsed=0:00:51.72    \nframe=   40 fps=0.8 q=46.0 size=       0KiB time=00:00:01.26 bitrate=   0.3kbits/s speed=0.0242x elapsed=0:00:52.25    \nframe=   40 fps=0.8 q=46.0 size=       0KiB time=00:00:01.26 bitrate=   0.3kbits/s speed=0.024x elapsed=0:00:52.87    \nframe=   41 fps=0.8 q=47.9 size=       0KiB time=00:00:01.30 bitrate=   0.3kbits/s speed=0.0243x elapsed=0:00:53.52    \nframe=   41 fps=0.8 q=47.9 size=       0KiB time=00:00:01.30 bitrate=   0.3kbits/s speed=0.024x elapsed=0:00:54.13    \nframe=   41 fps=0.7 q=47.9 size=       0KiB time=00:00:01.30 bitrate=   0.3kbits/s speed=0.0238x elapsed=0:00:54.70    \nframe=   41 fps=0.7 q=47.9 size=       0KiB time=00:00:01.30 bitrate=   0.3kbits/s speed=0.0235x elapsed=0:00:55.22    \nframe=   42 fps=0.8 q=48.1 size=       0KiB time=00:00:01.33 bitrate=   0.3kbits/s speed=0.0239x elapsed=0:00:55.75    \nframe=   42 fps=0.7 q=48.1 size=       0KiB time=00:00:01.33 bitrate=   0.3kbits/s speed=0.0237x elapsed=0:00:56.27    \nframe=   42 fps=0.7 q=48.1 size=       0KiB time=00:00:01.33 bitrate=   0.3kbits/s speed=0.0235x elapsed=0:00:56.82    \nframe=   42 fps=0.7 q=48.1 size=       0KiB time=00:00:01.33 bitrate=   0.3kbits/s speed=0.0233x elapsed=0:00:57.34    \nframe=   43 fps=0.7 q=42.3 size=       0KiB time=00:00:01.36 bitrate=   0.3kbits/s speed=0.0236x elapsed=0:00:57.85    \nframe=   44 fps=0.8 q=45.6 size=     256KiB time=00:00:01.40 bitrate=1498.2kbits/s speed=0.024x elapsed=0:00:58.37    \nframe=   44 fps=0.7 q=45.6 size=     256KiB time=00:00:01.40 bitrate=1498.2kbits/s speed=0.0238x elapsed=0:00:58.89    \nframe=   44 fps=0.7 q=45.6 size=     256KiB time=00:00:01.40 bitrate=1498.2kbits/s speed=0.0236x elapsed=0:00:59.42    \nframe=   45 fps=0.8 q=48.0 size=     256KiB time=00:00:01.43 bitrate=1463.4kbits/s speed=0.0239x elapsed=0:00:59.96    \nframe=   45 fps=0.7 q=48.0 size=     256KiB time=00:00:01.43 bitrate=1463.4kbits/s speed=0.0237x elapsed=0:01:00.50    \nframe=   46 fps=0.8 q=47.8 size=     256KiB time=00:00:01.46 bitrate=1430.1kbits/s speed=0.024x elapsed=0:01:01.03    \nframe=   46 fps=0.7 q=47.8 size=     256KiB time=00:00:01.46 bitrate=1430.1kbits/s speed=0.0238x elapsed=0:01:01.55    \nframe=   47 fps=0.8 q=42.1 size=     256KiB time=00:00:01.46 bitrate=1430.1kbits/s speed=0.0236x elapsed=0:01:02.09    \nframe=   48 fps=0.8 q=45.6 size=     256KiB time=00:00:01.53 bitrate=1367.9kbits/s speed=0.0245x elapsed=0:01:02.63    \nframe=   48 fps=0.8 q=45.6 size=     256KiB time=00:00:01.53 bitrate=1367.9kbits/s speed=0.0243x elapsed=0:01:03.15    \nframe=   48 fps=0.8 q=45.6 size=     256KiB time=00:00:01.53 bitrate=1367.9kbits/s speed=0.0241x elapsed=0:01:03.69    \nframe=   49 fps=0.8 q=47.8 size=     256KiB time=00:00:01.56 bitrate=1338.8kbits/s speed=0.0244x elapsed=0:01:04.23    \nframe=   49 fps=0.8 q=47.8 size=     256KiB time=00:00:01.56 bitrate=1338.8kbits/s speed=0.0242x elapsed=0:01:04.75    \nframe=   50 fps=0.8 q=47.9 size=     256KiB time=00:00:01.60 bitrate=1310.9kbits/s speed=0.0245x elapsed=0:01:05.28    \nframe=   50 fps=0.8 q=47.9 size=     256KiB time=00:00:01.60 bitrate=1310.9kbits/s speed=0.0243x elapsed=0:01:05.80    \nframe=   50 fps=0.8 q=47.9 size=     256KiB time=00:00:01.60 bitrate=1310.9kbits/s speed=0.0241x elapsed=0:01:06.35    \nframe=   50 fps=0.7 q=47.9 size=     256KiB time=00:00:01.60 bitrate=1310.9kbits/s speed=0.0239x elapsed=0:01:06.87    \nframe=   50 fps=0.7 q=47.9 size=     256KiB time=00:00:01.60 bitrate=1310.9kbits/s speed=0.0237x elapsed=0:01:07.42    \nframe=   50 fps=0.7 q=47.9 size=     256KiB time=00:00:01.60 bitrate=1310.9kbits/s speed=0.0236x elapsed=0:01:07.93    \nframe=   50 fps=0.7 q=47.9 size=     256KiB time=00:00:01.60 bitrate=1310.9kbits/s speed=0.0234x elapsed=0:01:08.46    \nframe=   50 fps=0.7 q=47.9 size=     256KiB time=00:00:01.60 bitrate=1310.9kbits/s speed=0.0232x elapsed=0:01:08.97    \nframe=   51 fps=0.7 q=42.1 size=     256KiB time=00:00:01.63 bitrate=1284.2kbits/s speed=0.0235x elapsed=0:01:09.49    \nframe=   52 fps=0.7 q=45.7 size=     256KiB time=00:00:01.66 bitrate=1258.5kbits/s speed=0.0238x elapsed=0:01:10.04    \nframe=   53 fps=0.8 q=48.0 size=     256KiB time=00:00:01.70 bitrate=1233.8kbits/s speed=0.0241x elapsed=0:01:10.55    \nframe=   53 fps=0.7 q=48.0 size=     256KiB time=00:00:01.70 bitrate=1233.8kbits/s speed=0.0239x elapsed=0:01:11.08    \nframe=   53 fps=0.7 q=48.0 size=     256KiB time=00:00:01.70 bitrate=1233.8kbits/s speed=0.0237x elapsed=0:01:11.61    \nframe=   53 fps=0.7 q=48.0 size=     256KiB time=00:00:01.70 bitrate=1233.8kbits/s speed=0.0236x elapsed=0:01:12.13    \nframe=   53 fps=0.7 q=48.0 size=     256KiB time=00:00:01.70 bitrate=1233.8kbits/s speed=0.0234x elapsed=0:01:12.64    \nframe=   54 fps=0.7 q=48.0 size=     256KiB time=00:00:01.73 bitrate=1210.1kbits/s speed=0.0237x elapsed=0:01:13.16    \nframe=   54 fps=0.7 q=48.0 size=     256KiB time=00:00:01.73 bitrate=1210.1kbits/s speed=0.0235x elapsed=0:01:13.70    \nframe=   54 fps=0.7 q=48.0 size=     256KiB time=00:00:01.73 bitrate=1210.1kbits/s speed=0.0234x elapsed=0:01:14.22    \nframe=   54 fps=0.7 q=48.0 size=     256KiB time=00:00:01.73 bitrate=1210.1kbits/s speed=0.0232x elapsed=0:01:14.73    \nframe=   56 fps=0.7 q=45.6 size=     256KiB time=00:00:01.80 bitrate=1165.3kbits/s speed=0.0239x elapsed=0:01:15.26    \nframe=   56 fps=0.7 q=45.6 size=     256KiB time=00:00:01.80 bitrate=1165.3kbits/s speed=0.0238x elapsed=0:01:15.78    \nframe=   56 fps=0.7 q=45.6 size=     256KiB time=00:00:01.80 bitrate=1165.3kbits/s speed=0.0236x elapsed=0:01:16.30    \nframe=   57 fps=0.7 q=47.8 size=     256KiB time=00:00:01.83 bitrate=1144.1kbits/s speed=0.0239x elapsed=0:01:16.81    \nframe=   57 fps=0.7 q=47.8 size=     256KiB time=00:00:01.83 bitrate=1144.1kbits/s speed=0.0237x elapsed=0:01:17.34    \nframe=   58 fps=0.7 q=47.9 size=     256KiB time=00:00:01.86 bitrate=1123.7kbits/s speed=0.024x elapsed=0:01:17.90    \nframe=   58 fps=0.7 q=47.9 size=     256KiB time=00:00:01.86 bitrate=1123.7kbits/s speed=0.0238x elapsed=0:01:18.47    \nframe=   58 fps=0.7 q=47.9 size=     256KiB time=00:00:01.86 bitrate=1123.7kbits/s speed=0.0236x elapsed=0:01:19.01    \nframe=   58 fps=0.7 q=47.9 size=     256KiB time=00:00:01.86 bitrate=1123.7kbits/s speed=0.0235x elapsed=0:01:19.55    \nframe=   58 fps=0.7 q=47.9 size=     256KiB time=00:00:01.86 bitrate=1123.7kbits/s speed=0.0233x elapsed=0:01:20.07    \nframe=   60 fps=0.7 q=45.9 size=     256KiB time=00:00:01.93 bitrate=1084.9kbits/s speed=0.024x elapsed=0:01:20.59    \nframe=   60 fps=0.7 q=45.9 size=     256KiB time=00:00:01.93 bitrate=1084.9kbits/s speed=0.0238x elapsed=0:01:21.10    \nframe=   61 fps=0.7 q=48.0 size=     256KiB time=00:00:01.96 bitrate=1066.5kbits/s speed=0.0241x elapsed=0:01:21.62    \nframe=   62 fps=0.8 q=47.8 size=     256KiB time=00:00:02.00 bitrate=1048.8kbits/s speed=0.0244x elapsed=0:01:22.13    \nframe=   62 fps=0.8 q=47.8 size=     256KiB time=00:00:02.00 bitrate=1048.8kbits/s speed=0.0242x elapsed=0:01:22.64    \nframe=   62 fps=0.7 q=47.8 size=     256KiB time=00:00:02.00 bitrate=1048.8kbits/s speed=0.024x elapsed=0:01:23.16    \nframe=   62 fps=0.7 q=47.8 size=     256KiB time=00:00:02.00 bitrate=1048.8kbits/s speed=0.0239x elapsed=0:01:23.68    \nframe=   62 fps=0.7 q=47.8 size=     256KiB time=00:00:02.00 bitrate=1048.8kbits/s speed=0.0238x elapsed=0:01:24.19    \nframe=   63 fps=0.7 q=41.8 size=     256KiB time=00:00:02.03 bitrate=1031.6kbits/s speed=0.024x elapsed=0:01:24.72    \nframe=   63 fps=0.7 q=41.8 size=     256KiB time=00:00:02.03 bitrate=1031.6kbits/s speed=0.0239x elapsed=0:01:25.24    \nframe=   63 fps=0.7 q=41.8 size=     256KiB time=00:00:02.03 bitrate=1031.6kbits/s speed=0.0237x elapsed=0:01:25.76    \nframe=   63 fps=0.7 q=41.8 size=     256KiB time=00:00:02.03 bitrate=1031.6kbits/s speed=0.0236x elapsed=0:01:26.30    \nframe=   64 fps=0.7 q=45.6 size=     256KiB time=00:00:02.06 bitrate=1014.9kbits/s speed=0.0238x elapsed=0:01:26.90    \nframe=   64 fps=0.7 q=45.6 size=     256KiB time=00:00:02.06 bitrate=1014.9kbits/s speed=0.0236x elapsed=0:01:27.48    \nframe=   64 fps=0.7 q=45.6 size=     256KiB time=00:00:02.06 bitrate=1014.9kbits/s speed=0.0235x elapsed=0:01:28.09    \nframe=   64 fps=0.7 q=45.6 size=     256KiB time=00:00:02.06 bitrate=1014.9kbits/s speed=0.0233x elapsed=0:01:28.72    \nframe=   64 fps=0.7 q=45.6 size=     256KiB time=00:00:02.06 bitrate=1014.9kbits/s speed=0.0231x elapsed=0:01:29.32    \nframe=   65 fps=0.7 q=48.2 size=     256KiB time=00:00:02.10 bitrate= 998.8kbits/s speed=0.0234x elapsed=0:01:29.86    \nframe=   65 fps=0.7 q=48.2 size=     256KiB time=00:00:02.10 bitrate= 998.8kbits/s speed=0.0232x elapsed=0:01:30.41    \nframe=   66 fps=0.7 q=47.9 size=     256KiB time=00:00:02.13 bitrate= 983.2kbits/s speed=0.0234x elapsed=0:01:30.99    \nframe=   66 fps=0.7 q=47.9 size=     256KiB time=00:00:02.13 bitrate= 983.2kbits/s speed=0.0233x elapsed=0:01:31.50    \nframe=   66 fps=0.7 q=47.9 size=     256KiB time=00:00:02.13 bitrate= 983.2kbits/s speed=0.0232x elapsed=0:01:32.03    \nframe=   66 fps=0.7 q=47.9 size=     256KiB time=00:00:02.13 bitrate= 983.2kbits/s speed=0.023x elapsed=0:01:32.58    \nframe=   66 fps=0.7 q=47.9 size=     256KiB time=00:00:02.13 bitrate= 983.2kbits/s speed=0.0229x elapsed=0:01:33.12    \nframe=   66 fps=0.7 q=47.9 size=     256KiB time=00:00:02.13 bitrate= 983.2kbits/s speed=0.0228x elapsed=0:01:33.66    \nframe=   67 fps=0.7 q=42.1 size=     256KiB time=00:00:02.16 bitrate= 968.1kbits/s speed=0.023x elapsed=0:01:34.19    \nframe=   67 fps=0.7 q=42.1 size=     256KiB time=00:00:02.16 bitrate= 968.1kbits/s speed=0.0229x elapsed=0:01:34.71    \nframe=   68 fps=0.7 q=45.5 size=     256KiB time=00:00:02.20 bitrate= 953.4kbits/s speed=0.0231x elapsed=0:01:35.22    \nframe=   68 fps=0.7 q=45.5 size=     256KiB time=00:00:02.20 bitrate= 953.4kbits/s speed=0.023x elapsed=0:01:35.75    \nframe=   69 fps=0.7 q=47.9 size=     256KiB time=00:00:02.23 bitrate= 939.2kbits/s speed=0.0232x elapsed=0:01:36.28    \nframe=   70 fps=0.7 q=47.8 size=     256KiB time=00:00:02.26 bitrate= 925.4kbits/s speed=0.0234x elapsed=0:01:36.84    \nframe=   71 fps=0.7 q=42.2 size=     256KiB time=00:00:02.30 bitrate= 912.0kbits/s speed=0.0236x elapsed=0:01:37.36    \nframe=   71 fps=0.7 q=42.2 size=     256KiB time=00:00:02.30 bitrate= 912.0kbits/s speed=0.0235x elapsed=0:01:37.90    \nframe=   71 fps=0.7 q=42.2 size=     256KiB time=00:00:02.30 bitrate= 912.0kbits/s speed=0.0234x elapsed=0:01:38.41    \nframe=   72 fps=0.7 q=45.4 size=     256KiB time=00:00:02.33 bitrate= 898.9kbits/s speed=0.0236x elapsed=0:01:38.93    \nframe=   72 fps=0.7 q=45.4 size=     256KiB time=00:00:02.33 bitrate= 898.9kbits/s speed=0.0235x elapsed=0:01:39.45    \nframe=   74 fps=0.7 q=47.7 size=     256KiB time=00:00:02.40 bitrate= 874.0kbits/s speed=0.024x elapsed=0:01:40.00    \nframe=   74 fps=0.7 q=47.7 size=     256KiB time=00:00:02.40 bitrate= 874.0kbits/s speed=0.0239x elapsed=0:01:40.52    \nframe=   75 fps=0.7 q=42.1 size=     256KiB time=00:00:02.43 bitrate= 862.0kbits/s speed=0.0241x elapsed=0:01:41.03    \nframe=   76 fps=0.7 q=45.4 size=     256KiB time=00:00:02.46 bitrate= 850.3kbits/s speed=0.0243x elapsed=0:01:41.54    \nframe=   76 fps=0.7 q=45.4 size=     256KiB time=00:00:02.46 bitrate= 850.3kbits/s speed=0.0242x elapsed=0:01:42.05    \nframe=   77 fps=0.8 q=47.8 size=     256KiB time=00:00:02.50 bitrate= 839.0kbits/s speed=0.0244x elapsed=0:01:42.58    \nframe=   77 fps=0.7 q=47.8 size=     256KiB time=00:00:02.50 bitrate= 839.0kbits/s speed=0.0242x elapsed=0:01:43.10    \nframe=   77 fps=0.7 q=47.8 size=     256KiB time=00:00:02.50 bitrate= 839.0kbits/s speed=0.0241x elapsed=0:01:43.66    \nframe=   78 fps=0.7 q=47.7 size=     256KiB time=00:00:02.53 bitrate= 828.0kbits/s speed=0.0243x elapsed=0:01:44.18    \nframe=   78 fps=0.7 q=47.7 size=     256KiB time=00:00:02.53 bitrate= 828.0kbits/s speed=0.0242x elapsed=0:01:44.70    \nframe=   78 fps=0.7 q=47.7 size=     256KiB time=00:00:02.53 bitrate= 828.0kbits/s speed=0.0241x elapsed=0:01:45.23    \nframe=   78 fps=0.7 q=47.7 size=     256KiB time=00:00:02.53 bitrate= 828.0kbits/s speed=0.024x elapsed=0:01:45.74    \nframe=   78 fps=0.7 q=47.7 size=     256KiB time=00:00:02.53 bitrate= 828.0kbits/s speed=0.0238x elapsed=0:01:46.26    \nframe=   78 fps=0.7 q=47.7 size=     256KiB time=00:00:02.53 bitrate= 828.0kbits/s speed=0.0237x elapsed=0:01:46.77    \nframe=   79 fps=0.7 q=42.1 size=     256KiB time=00:00:02.56 bitrate= 817.2kbits/s speed=0.0239x elapsed=0:01:47.31    \nframe=   79 fps=0.7 q=42.1 size=     256KiB time=00:00:02.56 bitrate= 817.2kbits/s speed=0.0238x elapsed=0:01:47.83    \nframe=   79 fps=0.7 q=42.1 size=     256KiB time=00:00:02.56 bitrate= 817.2kbits/s speed=0.0237x elapsed=0:01:48.35    \nframe=   80 fps=0.7 q=45.1 size=     256KiB time=00:00:02.60 bitrate= 806.7kbits/s speed=0.0239x elapsed=0:01:48.87    \nframe=   81 fps=0.7 q=47.5 size=     256KiB time=00:00:02.63 bitrate= 796.5kbits/s speed=0.0241x elapsed=0:01:49.41    \nframe=   82 fps=0.7 q=47.7 size=     256KiB time=00:00:02.66 bitrate= 786.6kbits/s speed=0.0243x elapsed=0:01:49.93    \nframe=   82 fps=0.7 q=47.7 size=     256KiB time=00:00:02.66 bitrate= 786.6kbits/s speed=0.0241x elapsed=0:01:50.44    \nframe=   82 fps=0.7 q=47.7 size=     256KiB time=00:00:02.66 bitrate= 786.6kbits/s speed=0.024x elapsed=0:01:50.97    \nframe=   82 fps=0.7 q=47.7 size=     256KiB time=00:00:02.66 bitrate= 786.6kbits/s speed=0.0239x elapsed=0:01:51.51    \nframe=   82 fps=0.7 q=47.7 size=     256KiB time=00:00:02.66 bitrate= 786.6kbits/s speed=0.0238x elapsed=0:01:52.04    \nframe=   83 fps=0.7 q=42.2 size=     256KiB time=00:00:02.70 bitrate= 776.9kbits/s speed=0.024x elapsed=0:01:52.59    \nframe=   83 fps=0.7 q=42.2 size=     256KiB time=00:00:02.70 bitrate= 776.9kbits/s speed=0.0239x elapsed=0:01:53.12    \nframe=   84 fps=0.7 q=45.4 size=     256KiB time=00:00:02.73 bitrate= 767.4kbits/s speed=0.0241x elapsed=0:01:53.64    \nframe=   84 fps=0.7 q=45.4 size=     256KiB time=00:00:02.73 bitrate= 767.4kbits/s speed=0.0239x elapsed=0:01:54.16    \nframe=   84 fps=0.7 q=45.4 size=     256KiB time=00:00:02.73 bitrate= 767.4kbits/s speed=0.0238x elapsed=0:01:54.71    \nframe=   85 fps=0.7 q=47.7 size=     256KiB time=00:00:02.76 bitrate= 758.1kbits/s speed=0.024x elapsed=0:01:55.24    \nframe=   85 fps=0.7 q=47.7 size=     256KiB time=00:00:02.76 bitrate= 758.1kbits/s speed=0.0239x elapsed=0:01:55.79    \nframe=   86 fps=0.7 q=47.8 size=     256KiB time=00:00:02.80 bitrate= 749.1kbits/s speed=0.0241x elapsed=0:01:56.32    \nframe=   87 fps=0.7 q=42.2 size=     512KiB time=00:00:02.83 bitrate=1480.5kbits/s speed=0.0242x elapsed=0:01:56.87    \nframe=   87 fps=0.7 q=42.2 size=     512KiB time=00:00:02.83 bitrate=1480.5kbits/s speed=0.0241x elapsed=0:01:57.40    \nframe=   88 fps=0.7 q=45.5 size=     512KiB time=00:00:02.86 bitrate=1463.3kbits/s speed=0.0243x elapsed=0:01:57.92    \nframe=   88 fps=0.7 q=45.5 size=     512KiB time=00:00:02.86 bitrate=1463.3kbits/s speed=0.0242x elapsed=0:01:58.45    \nframe=   88 fps=0.7 q=45.5 size=     512KiB time=00:00:02.86 bitrate=1463.3kbits/s speed=0.0241x elapsed=0:01:58.98    \nframe=   88 fps=0.7 q=45.5 size=     512KiB time=00:00:02.86 bitrate=1463.3kbits/s speed=0.024x elapsed=0:01:59.50    \nframe=   88 fps=0.7 q=45.5 size=     512KiB time=00:00:02.86 bitrate=1463.3kbits/s speed=0.0239x elapsed=0:02:00.02    \nframe=   89 fps=0.7 q=47.6 size=     512KiB time=00:00:02.90 bitrate=1446.4kbits/s speed=0.0241x elapsed=0:02:00.55    \nframe=   90 fps=0.7 q=47.9 size=     512KiB time=00:00:02.93 bitrate=1430.0kbits/s speed=0.0242x elapsed=0:02:01.07    \nframe=   90 fps=0.7 q=47.9 size=     512KiB time=00:00:02.93 bitrate=1430.0kbits/s speed=0.0241x elapsed=0:02:01.59    \nframe=   90 fps=0.7 q=47.9 size=     512KiB time=00:00:02.93 bitrate=1430.0kbits/s speed=0.024x elapsed=0:02:02.11    \nframe=   90 fps=0.7 q=47.9 size=     512KiB time=00:00:02.93 bitrate=1430.0kbits/s speed=0.0239x elapsed=0:02:02.64    \nframe=   90 fps=0.7 q=47.9 size=     512KiB time=00:00:02.93 bitrate=1430.0kbits/s speed=0.0238x elapsed=0:02:03.15    \nframe=   90 fps=0.7 q=47.9 size=     512KiB time=00:00:02.93 bitrate=1430.0kbits/s speed=0.0237x elapsed=0:02:03.71    \nframe=   90 fps=0.7 q=47.9 size=     512KiB time=00:00:02.93 bitrate=1430.0kbits/s speed=0.0236x elapsed=0:02:04.32    \nframe=   90 fps=0.7 q=47.9 size=     512KiB time=00:00:02.93 bitrate=1430.0kbits/s speed=0.0235x elapsed=0:02:04.94    \nframe=   91 fps=0.7 q=42.2 size=     512KiB time=00:00:02.96 bitrate=1413.9kbits/s speed=0.0236x elapsed=0:02:05.59    \nframe=   92 fps=0.7 q=45.3 size=     512KiB time=00:00:03.00 bitrate=1398.2kbits/s speed=0.0238x elapsed=0:02:06.22    \nframe=   93 fps=0.7 q=47.5 size=     512KiB time=00:00:03.03 bitrate=1382.9kbits/s speed=0.0239x elapsed=0:02:06.75    \nframe=   93 fps=0.7 q=47.5 size=     512KiB time=00:00:03.03 bitrate=1382.9kbits/s speed=0.0238x elapsed=0:02:07.35    \nframe=   93 fps=0.7 q=47.5 size=     512KiB time=00:00:03.03 bitrate=1382.9kbits/s speed=0.0237x elapsed=0:02:07.89    \nframe=   93 fps=0.7 q=47.5 size=     512KiB time=00:00:03.03 bitrate=1382.9kbits/s speed=0.0236x elapsed=0:02:08.47    \nframe=   93 fps=0.7 q=47.5 size=     512KiB time=00:00:03.03 bitrate=1382.9kbits/s speed=0.0235x elapsed=0:02:09.07    \nframe=   93 fps=0.7 q=47.5 size=     512KiB time=00:00:03.03 bitrate=1382.9kbits/s speed=0.0234x elapsed=0:02:09.71    \nframe=   94 fps=0.7 q=47.5 size=     512KiB time=00:00:03.06 bitrate=1367.8kbits/s speed=0.0235x elapsed=0:02:10.27    \nframe=   94 fps=0.7 q=47.5 size=     512KiB time=00:00:03.06 bitrate=1367.8kbits/s speed=0.0234x elapsed=0:02:10.83    \nframe=   94 fps=0.7 q=47.5 size=     512KiB time=00:00:03.06 bitrate=1367.8kbits/s speed=0.0233x elapsed=0:02:11.35    \nframe=   94 fps=0.7 q=47.5 size=     512KiB time=00:00:03.06 bitrate=1367.8kbits/s speed=0.0233x elapsed=0:02:11.88    \nframe=   94 fps=0.7 q=47.5 size=     512KiB time=00:00:03.06 bitrate=1367.8kbits/s speed=0.0232x elapsed=0:02:12.41    \nframe=   95 fps=0.7 q=42.4 size=     512KiB time=00:00:03.10 bitrate=1353.1kbits/s speed=0.0233x elapsed=0:02:12.97    \nframe=   95 fps=0.7 q=42.4 size=     512KiB time=00:00:03.10 bitrate=1353.1kbits/s speed=0.0232x elapsed=0:02:13.49    \nframe=   95 fps=0.7 q=42.4 size=     512KiB time=00:00:03.10 bitrate=1353.1kbits/s speed=0.0231x elapsed=0:02:14.05    \nframe=   96 fps=0.7 q=45.4 size=     512KiB time=00:00:03.13 bitrate=1338.7kbits/s speed=0.0233x elapsed=0:02:14.58    \nframe=   96 fps=0.7 q=45.4 size=     512KiB time=00:00:03.13 bitrate=1338.7kbits/s speed=0.0232x elapsed=0:02:15.11    \nframe=   97 fps=0.7 q=47.5 size=     512KiB time=00:00:03.16 bitrate=1324.6kbits/s speed=0.0233x elapsed=0:02:15.63    \nframe=   97 fps=0.7 q=47.5 size=     512KiB time=00:00:03.16 bitrate=1324.6kbits/s speed=0.0233x elapsed=0:02:16.16    \nframe=   99 fps=0.7 q=42.3 size=     512KiB time=00:00:03.23 bitrate=1297.3kbits/s speed=0.0237x elapsed=0:02:16.69    \nframe=   99 fps=0.7 q=42.3 size=     512KiB time=00:00:03.23 bitrate=1297.3kbits/s speed=0.0236x elapsed=0:02:17.25    \nframe=   99 fps=0.7 q=42.3 size=     512KiB time=00:00:03.23 bitrate=1297.3kbits/s speed=0.0235x elapsed=0:02:17.75    \nframe=  100 fps=0.7 q=45.5 size=     512KiB time=00:00:03.26 bitrate=1284.1kbits/s speed=0.0236x elapsed=0:02:18.28    \nframe=  100 fps=0.7 q=45.5 size=     512KiB time=00:00:03.26 bitrate=1284.1kbits/s speed=0.0235x elapsed=0:02:18.80    \nframe=  101 fps=0.7 q=47.5 size=     512KiB time=00:00:03.30 bitrate=1271.1kbits/s speed=0.0237x elapsed=0:02:19.32    \nframe=  101 fps=0.7 q=47.5 size=     512KiB time=00:00:03.30 bitrate=1271.1kbits/s speed=0.0236x elapsed=0:02:19.84    \nframe=  102 fps=0.7 q=47.9 size=     512KiB time=00:00:03.33 bitrate=1258.4kbits/s speed=0.0237x elapsed=0:02:20.36    \nframe=  102 fps=0.7 q=47.9 size=     512KiB time=00:00:03.33 bitrate=1258.4kbits/s speed=0.0237x elapsed=0:02:20.88    \nframe=  103 fps=0.7 q=42.4 size=     512KiB time=00:00:03.36 bitrate=1245.9kbits/s speed=0.0238x elapsed=0:02:21.41    \nframe=  104 fps=0.7 q=45.7 size=     512KiB time=00:00:03.40 bitrate=1233.7kbits/s speed=0.024x elapsed=0:02:21.93    \nframe=  105 fps=0.7 q=47.8 size=     512KiB time=00:00:03.43 bitrate=1221.7kbits/s speed=0.0241x elapsed=0:02:22.45    \nframe=  105 fps=0.7 q=47.8 size=     512KiB time=00:00:03.43 bitrate=1221.7kbits/s speed=0.024x elapsed=0:02:22.99    \nframe=  106 fps=0.7 q=47.8 size=     512KiB time=00:00:03.46 bitrate=1210.0kbits/s speed=0.0242x elapsed=0:02:23.50    \nframe=  107 fps=0.7 q=42.4 size=     512KiB time=00:00:03.50 bitrate=1198.5kbits/s speed=0.0243x elapsed=0:02:24.02    \nframe=  107 fps=0.7 q=42.4 size=     512KiB time=00:00:03.50 bitrate=1198.5kbits/s speed=0.0242x elapsed=0:02:24.54    \nframe=  108 fps=0.7 q=45.4 size=     512KiB time=00:00:03.53 bitrate=1187.2kbits/s speed=0.0244x elapsed=0:02:25.07    \nframe=  110 fps=0.8 q=47.9 size=     512KiB time=00:00:03.60 bitrate=1165.2kbits/s speed=0.0247x elapsed=0:02:25.59    \nframe=  110 fps=0.8 q=47.9 size=     512KiB time=00:00:03.60 bitrate=1165.2kbits/s speed=0.0246x elapsed=0:02:26.11    \nframe=  111 fps=0.8 q=42.5 size=     512KiB time=00:00:03.63 bitrate=1154.5kbits/s speed=0.0248x elapsed=0:02:26.64    \nframe=  111 fps=0.8 q=42.5 size=     512KiB time=00:00:03.63 bitrate=1154.5kbits/s speed=0.0247x elapsed=0:02:27.19    \nframe=  111 fps=0.8 q=42.5 size=     512KiB time=00:00:03.63 bitrate=1154.5kbits/s speed=0.0246x elapsed=0:02:27.78    \nframe=  111 fps=0.7 q=42.5 size=     512KiB time=00:00:03.63 bitrate=1154.5kbits/s speed=0.0245x elapsed=0:02:28.30    \nframe=  111 fps=0.7 q=42.5 size=     512KiB time=00:00:03.63 bitrate=1154.5kbits/s speed=0.0244x elapsed=0:02:28.85    \nframe=  111 fps=0.7 q=42.5 size=     512KiB time=00:00:03.63 bitrate=1154.5kbits/s speed=0.0243x elapsed=0:02:29.39    \nframe=  112 fps=0.7 q=46.6 size=     512KiB time=00:00:03.66 bitrate=1144.0kbits/s speed=0.0245x elapsed=0:02:29.92    \nframe=  112 fps=0.7 q=46.6 size=     512KiB time=00:00:03.66 bitrate=1144.0kbits/s speed=0.0244x elapsed=0:02:30.46    \nframe=  112 fps=0.7 q=46.6 size=     512KiB time=00:00:03.66 bitrate=1144.0kbits/s speed=0.0243x elapsed=0:02:30.98    \nframe=  113 fps=0.7 q=47.6 size=     512KiB time=00:00:03.70 bitrate=1133.7kbits/s speed=0.0244x elapsed=0:02:31.52    \nframe=  114 fps=0.7 q=47.8 size=     512KiB time=00:00:03.73 bitrate=1123.6kbits/s speed=0.0246x elapsed=0:02:32.04    \nframe=  115 fps=0.8 q=47.9 size=     512KiB time=00:00:03.76 bitrate=1113.6kbits/s speed=0.0247x elapsed=0:02:32.58    \nframe=  115 fps=0.8 q=47.9 size=     512KiB time=00:00:03.76 bitrate=1113.6kbits/s speed=0.0246x elapsed=0:02:33.14    \nframe=  115 fps=0.7 q=47.9 size=     512KiB time=00:00:03.76 bitrate=1113.6kbits/s speed=0.0245x elapsed=0:02:33.66    \nframe=  115 fps=0.7 q=47.9 size=     512KiB time=00:00:03.76 bitrate=1113.6kbits/s speed=0.0244x elapsed=0:02:34.19    \nframe=  115 fps=0.7 q=47.9 size=     512KiB time=00:00:03.76 bitrate=1113.6kbits/s speed=0.0243x elapsed=0:02:34.72    \nframe=  116 fps=0.7 q=42.5 size=     512KiB time=00:00:03.80 bitrate=1103.9kbits/s speed=0.0245x elapsed=0:02:35.26    \nframe=  116 fps=0.7 q=42.5 size=     512KiB time=00:00:03.80 bitrate=1103.9kbits/s speed=0.0244x elapsed=0:02:35.84    \nframe=  116 fps=0.7 q=42.5 size=     512KiB time=00:00:03.80 bitrate=1103.9kbits/s speed=0.0243x elapsed=0:02:36.39    \nframe=  116 fps=0.7 q=42.5 size=     512KiB time=00:00:03.80 bitrate=1103.9kbits/s speed=0.0242x elapsed=0:02:36.93    \nframe=  116 fps=0.7 q=42.5 size=     512KiB time=00:00:03.80 bitrate=1103.9kbits/s speed=0.0241x elapsed=0:02:37.57    \nframe=  116 fps=0.7 q=42.5 size=     512KiB time=00:00:03.80 bitrate=1103.9kbits/s speed=0.024x elapsed=0:02:38.23    \nframe=  116 fps=0.7 q=42.5 size=     512KiB time=00:00:03.80 bitrate=1103.9kbits/s speed=0.0239x elapsed=0:02:38.83    \nframe=  116 fps=0.7 q=42.5 size=     512KiB time=00:00:03.80 bitrate=1103.9kbits/s speed=0.0238x elapsed=0:02:39.42    \nframe=  117 fps=0.7 q=45.4 size=     512KiB time=00:00:03.83 bitrate=1094.3kbits/s speed=0.024x elapsed=0:02:40.04    \nframe=  117 fps=0.7 q=45.4 size=     512KiB time=00:00:03.83 bitrate=1094.3kbits/s speed=0.0239x elapsed=0:02:40.62    \nframe=  117 fps=0.7 q=45.4 size=     512KiB time=00:00:03.83 bitrate=1094.3kbits/s speed=0.0238x elapsed=0:02:41.19    \nframe=  118 fps=0.7 q=47.7 size=     512KiB time=00:00:03.86 bitrate=1084.8kbits/s speed=0.0239x elapsed=0:02:41.73    \nframe=  118 fps=0.7 q=47.7 size=     512KiB time=00:00:03.86 bitrate=1084.8kbits/s speed=0.0238x elapsed=0:02:42.26    \nframe=  119 fps=0.7 q=47.6 size=     512KiB time=00:00:03.90 bitrate=1075.6kbits/s speed=0.024x elapsed=0:02:42.78    \nframe=  119 fps=0.7 q=47.6 size=     512KiB time=00:00:03.90 bitrate=1075.6kbits/s speed=0.0239x elapsed=0:02:43.29    \nframe=  119 fps=0.7 q=47.6 size=     512KiB time=00:00:03.90 bitrate=1075.6kbits/s speed=0.0238x elapsed=0:02:43.82    \nframe=  119 fps=0.7 q=47.6 size=     512KiB time=00:00:03.90 bitrate=1075.6kbits/s speed=0.0237x elapsed=0:02:44.39    \nframe=  120 fps=0.7 q=42.4 size=     512KiB time=00:00:03.93 bitrate=1066.4kbits/s speed=0.0238x elapsed=0:02:44.92    \nframe=  120 fps=0.7 q=42.4 size=     512KiB time=00:00:03.93 bitrate=1066.4kbits/s speed=0.0238x elapsed=0:02:45.54    \nframe=  120 fps=0.7 q=42.4 size=     512KiB time=00:00:03.93 bitrate=1066.4kbits/s speed=0.0237x elapsed=0:02:46.13    \nframe=  120 fps=0.7 q=42.4 size=     512KiB time=00:00:03.93 bitrate=1066.4kbits/s speed=0.0236x elapsed=0:02:46.72    \nframe=  120 fps=0.7 q=42.4 size=     512KiB time=00:00:03.93 bitrate=1066.4kbits/s speed=0.0235x elapsed=0:02:47.26    \nframe=  120 fps=0.7 q=42.4 size=     512KiB time=00:00:03.93 bitrate=1066.4kbits/s speed=0.0234x elapsed=0:02:47.90    \nframe=  120 fps=0.7 q=42.4 size=     512KiB time=00:00:03.93 bitrate=1066.4kbits/s speed=0.0233x elapsed=0:02:48.46    \nframe=  120 fps=0.7 q=42.4 size=     512KiB time=00:00:03.93 bitrate=1066.4kbits/s speed=0.0233x elapsed=0:02:49.06    \nframe=  120 fps=0.7 q=42.4 size=     512KiB time=00:00:03.93 bitrate=1066.4kbits/s speed=0.0232x elapsed=0:02:49.64    \nframe=  120 fps=0.7 q=42.4 size=     512KiB time=00:00:03.93 bitrate=1066.4kbits/s speed=0.0231x elapsed=0:02:50.26    \nframe=  120 fps=0.7 q=42.4 size=     512KiB time=00:00:03.93 bitrate=1066.4kbits/s speed=0.023x elapsed=0:02:50.85    \nframe=  120 fps=0.7 q=42.4 size=     512KiB time=00:00:03.93 bitrate=1066.4kbits/s speed=0.0229x elapsed=0:02:51.44    \nframe=  121 fps=0.7 q=45.6 size=     512KiB time=00:00:03.96 bitrate=1057.5kbits/s speed=0.0231x elapsed=0:02:52.03    \nframe=  121 fps=0.7 q=45.6 size=     512KiB time=00:00:03.96 bitrate=1057.5kbits/s speed=0.023x elapsed=0:02:52.54    \nframe=  121 fps=0.7 q=45.6 size=     512KiB time=00:00:03.96 bitrate=1057.5kbits/s speed=0.0229x elapsed=0:02:53.12    \nframe=  122 fps=0.7 q=47.6 size=     512KiB time=00:00:04.00 bitrate=1048.7kbits/s speed=0.023x elapsed=0:02:53.65    \nframe=  122 fps=0.7 q=47.6 size=     512KiB time=00:00:04.00 bitrate=1048.7kbits/s speed=0.023x elapsed=0:02:54.18    \nframe=  123 fps=0.7 q=47.9 size=     512KiB time=00:00:04.03 bitrate=1040.0kbits/s speed=0.0231x elapsed=0:02:54.70    \nframe=  123 fps=0.7 q=47.9 size=     512KiB time=00:00:04.03 bitrate=1040.0kbits/s speed=0.023x elapsed=0:02:55.30    \nframe=  123 fps=0.7 q=47.9 size=     512KiB time=00:00:04.03 bitrate=1040.0kbits/s speed=0.0229x elapsed=0:02:55.84    \nframe=  123 fps=0.7 q=47.9 size=     512KiB time=00:00:04.03 bitrate=1040.0kbits/s speed=0.0229x elapsed=0:02:56.37    \nframe=  123 fps=0.7 q=47.9 size=     512KiB time=00:00:04.03 bitrate=1040.0kbits/s speed=0.0228x elapsed=0:02:56.99    \nframe=  123 fps=0.7 q=47.9 size=     512KiB time=00:00:04.03 bitrate=1040.0kbits/s speed=0.0227x elapsed=0:02:57.50    \nframe=  124 fps=0.7 q=42.5 size=     512KiB time=00:00:04.06 bitrate=1031.5kbits/s speed=0.0228x elapsed=0:02:58.02    \nframe=  124 fps=0.7 q=42.5 size=     512KiB time=00:00:04.06 bitrate=1031.5kbits/s speed=0.0228x elapsed=0:02:58.54    \nframe=  124 fps=0.7 q=42.5 size=     512KiB time=00:00:04.06 bitrate=1031.5kbits/s speed=0.0227x elapsed=0:02:59.10    \nframe=  126 fps=0.7 q=47.7 size=     768KiB time=00:00:04.13 bitrate=1522.2kbits/s speed=0.023x elapsed=0:02:59.64    \nframe=  126 fps=0.7 q=47.7 size=     768KiB time=00:00:04.13 bitrate=1522.2kbits/s speed=0.0229x elapsed=0:03:00.16    \nframe=  126 fps=0.7 q=47.7 size=     768KiB time=00:00:04.13 bitrate=1522.2kbits/s speed=0.0229x elapsed=0:03:00.68    \nframe=  126 fps=0.7 q=47.7 size=     768KiB time=00:00:04.13 bitrate=1522.2kbits/s speed=0.0228x elapsed=0:03:01.25    \nframe=  127 fps=0.7 q=47.7 size=     768KiB time=00:00:04.16 bitrate=1510.0kbits/s speed=0.0229x elapsed=0:03:01.79    \nframe=  127 fps=0.7 q=47.7 size=     768KiB time=00:00:04.16 bitrate=1510.0kbits/s speed=0.0229x elapsed=0:03:02.33    \nframe=  127 fps=0.7 q=47.7 size=     768KiB time=00:00:04.16 bitrate=1510.0kbits/s speed=0.0228x elapsed=0:03:02.92    \nframe=  127 fps=0.7 q=47.7 size=     768KiB time=00:00:04.16 bitrate=1510.0kbits/s speed=0.0227x elapsed=0:03:03.50    \nframe=  127 fps=0.7 q=47.7 size=     768KiB time=00:00:04.16 bitrate=1510.0kbits/s speed=0.0226x elapsed=0:03:04.03    \nframe=  128 fps=0.7 q=42.5 size=     768KiB time=00:00:04.20 bitrate=1498.0kbits/s speed=0.0228x elapsed=0:03:04.54    \nframe=  128 fps=0.7 q=42.5 size=     768KiB time=00:00:04.20 bitrate=1498.0kbits/s speed=0.0227x elapsed=0:03:05.09    \nframe=  128 fps=0.7 q=42.5 size=     768KiB time=00:00:04.20 bitrate=1498.0kbits/s speed=0.0226x elapsed=0:03:05.63    \nframe=  128 fps=0.7 q=42.5 size=     768KiB time=00:00:04.20 bitrate=1498.0kbits/s speed=0.0226x elapsed=0:03:06.15    \nframe=  128 fps=0.7 q=42.5 size=     768KiB time=00:00:04.20 bitrate=1498.0kbits/s speed=0.0225x elapsed=0:03:06.68    \nframe=  128 fps=0.7 q=42.5 size=     768KiB time=00:00:04.20 bitrate=1498.0kbits/s speed=0.0224x elapsed=0:03:07.22    \nframe=  129 fps=0.7 q=45.5 size=     768KiB time=00:00:04.23 bitrate=1486.3kbits/s speed=0.0225x elapsed=0:03:07.77    \nframe=  129 fps=0.7 q=45.5 size=     768KiB time=00:00:04.23 bitrate=1486.3kbits/s speed=0.0225x elapsed=0:03:08.30    \nframe=  129 fps=0.7 q=45.5 size=     768KiB time=00:00:04.23 bitrate=1486.3kbits/s speed=0.0224x elapsed=0:03:08.85    \nframe=  130 fps=0.7 q=47.6 size=     768KiB time=00:00:04.26 bitrate=1474.6kbits/s speed=0.0225x elapsed=0:03:09.37    \nframe=  131 fps=0.7 q=47.6 size=     768KiB time=00:00:04.26 bitrate=1474.6kbits/s speed=0.0225x elapsed=0:03:09.88    \nframe=  131 fps=0.7 q=47.6 size=     768KiB time=00:00:04.30 bitrate=1463.2kbits/s speed=0.0226x elapsed=0:03:10.52    \nframe=  131 fps=0.7 q=47.6 size=     768KiB time=00:00:04.30 bitrate=1463.2kbits/s speed=0.0225x elapsed=0:03:11.10    \nframe=  131 fps=0.7 q=47.6 size=     768KiB time=00:00:04.30 bitrate=1463.2kbits/s speed=0.0224x elapsed=0:03:11.76    \nframe=  131 fps=0.7 q=47.6 size=     768KiB time=00:00:04.30 bitrate=1463.2kbits/s speed=0.0223x elapsed=0:03:12.39    \nframe=  131 fps=0.7 q=47.6 size=     768KiB time=00:00:04.30 bitrate=1463.2kbits/s speed=0.0223x elapsed=0:03:12.97    \nframe=  132 fps=0.7 q=42.4 size=     768KiB time=00:00:04.33 bitrate=1452.0kbits/s speed=0.0224x elapsed=0:03:13.51    \nframe=  132 fps=0.7 q=42.4 size=     768KiB time=00:00:04.33 bitrate=1452.0kbits/s speed=0.0223x elapsed=0:03:14.04    \nframe=  132 fps=0.7 q=42.4 size=     768KiB time=00:00:04.33 bitrate=1452.0kbits/s speed=0.0223x elapsed=0:03:14.63    \nframe=  132 fps=0.7 q=42.4 size=     768KiB time=00:00:04.33 bitrate=1452.0kbits/s speed=0.0222x elapsed=0:03:15.15    \nframe=  132 fps=0.7 q=42.4 size=     768KiB time=00:00:04.33 bitrate=1452.0kbits/s speed=0.0221x elapsed=0:03:15.68    \nframe=  132 fps=0.7 q=42.4 size=     768KiB time=00:00:04.33 bitrate=1452.0kbits/s speed=0.0221x elapsed=0:03:16.25    \nframe=  132 fps=0.7 q=42.4 size=     768KiB time=00:00:04.33 bitrate=1452.0kbits/s speed=0.022x elapsed=0:03:16.80    \nframe=  132 fps=0.7 q=42.4 size=     768KiB time=00:00:04.33 bitrate=1452.0kbits/s speed=0.022x elapsed=0:03:17.35    \nframe=  132 fps=0.7 q=42.4 size=     768KiB time=00:00:04.33 bitrate=1452.0kbits/s speed=0.0219x elapsed=0:03:17.95    \nframe=  133 fps=0.7 q=45.5 size=     768KiB time=00:00:04.36 bitrate=1440.9kbits/s speed=0.022x elapsed=0:03:18.52    \nframe=  133 fps=0.7 q=45.5 size=     768KiB time=00:00:04.36 bitrate=1440.9kbits/s speed=0.0219x elapsed=0:03:19.04    \nframe=  133 fps=0.7 q=45.5 size=     768KiB time=00:00:04.36 bitrate=1440.9kbits/s speed=0.0219x elapsed=0:03:19.62    \nframe=  133 fps=0.7 q=45.5 size=     768KiB time=00:00:04.36 bitrate=1440.9kbits/s speed=0.0218x elapsed=0:03:20.16    \nframe=  134 fps=0.7 q=47.7 size=     768KiB time=00:00:04.40 bitrate=1430.0kbits/s speed=0.0219x elapsed=0:03:20.71    \nframe=  134 fps=0.7 q=47.7 size=     768KiB time=00:00:04.40 bitrate=1430.0kbits/s speed=0.0219x elapsed=0:03:21.25    \nframe=  135 fps=0.7 q=47.9 size=     768KiB time=00:00:04.43 bitrate=1419.2kbits/s speed=0.022x elapsed=0:03:21.81    \nframe=  135 fps=0.7 q=47.9 size=     768KiB time=00:00:04.43 bitrate=1419.2kbits/s speed=0.0219x elapsed=0:03:22.34    \nframe=  135 fps=0.7 q=47.9 size=     768KiB time=00:00:04.43 bitrate=1419.2kbits/s speed=0.0219x elapsed=0:03:22.87    \nframe=  135 fps=0.7 q=47.9 size=     768KiB time=00:00:04.43 bitrate=1419.2kbits/s speed=0.0218x elapsed=0:03:23.39    \nframe=  135 fps=0.7 q=47.9 size=     768KiB time=00:00:04.43 bitrate=1419.2kbits/s speed=0.0217x elapsed=0:03:23.94    \nframe=  135 fps=0.7 q=47.9 size=     768KiB time=00:00:04.43 bitrate=1419.2kbits/s speed=0.0217x elapsed=0:03:24.48    \nframe=  135 fps=0.7 q=47.9 size=     768KiB time=00:00:04.43 bitrate=1419.2kbits/s speed=0.0216x elapsed=0:03:25.00    \nframe=  135 fps=0.7 q=47.9 size=     768KiB time=00:00:04.43 bitrate=1419.2kbits/s speed=0.0216x elapsed=0:03:25.52    \nframe=  136 fps=0.7 q=42.7 size=     768KiB time=00:00:04.46 bitrate=1408.6kbits/s speed=0.0217x elapsed=0:03:26.04    \nframe=  136 fps=0.7 q=42.7 size=     768KiB time=00:00:04.46 bitrate=1408.6kbits/s speed=0.0216x elapsed=0:03:26.59    \nframe=  136 fps=0.7 q=42.7 size=     768KiB time=00:00:04.46 bitrate=1408.6kbits/s speed=0.0216x elapsed=0:03:27.14    \nframe=  136 fps=0.7 q=42.7 size=     768KiB time=00:00:04.46 bitrate=1408.6kbits/s speed=0.0215x elapsed=0:03:27.69    \nframe=  136 fps=0.7 q=42.7 size=     768KiB time=00:00:04.46 bitrate=1408.6kbits/s speed=0.0214x elapsed=0:03:28.26    \nframe=  136 fps=0.7 q=42.7 size=     768KiB time=00:00:04.46 bitrate=1408.6kbits/s speed=0.0214x elapsed=0:03:28.80    \nframe=  137 fps=0.7 q=46.6 size=     768KiB time=00:00:04.50 bitrate=1398.2kbits/s speed=0.0215x elapsed=0:03:29.32    \nframe=  137 fps=0.7 q=46.6 size=     768KiB time=00:00:04.50 bitrate=1398.2kbits/s speed=0.0214x elapsed=0:03:29.84    \nframe=  137 fps=0.7 q=46.6 size=     768KiB time=00:00:04.50 bitrate=1398.2kbits/s speed=0.0214x elapsed=0:03:30.37    \nframe=  138 fps=0.7 q=47.7 size=     768KiB time=00:00:04.53 bitrate=1387.9kbits/s speed=0.0215x elapsed=0:03:30.90    \nframe=  138 fps=0.7 q=47.7 size=     768KiB time=00:00:04.53 bitrate=1387.9kbits/s speed=0.0214x elapsed=0:03:31.43    \nframe=  139 fps=0.7 q=47.7 size=     768KiB time=00:00:04.56 bitrate=1377.8kbits/s speed=0.0215x elapsed=0:03:31.98    \nframe=  139 fps=0.7 q=47.7 size=     768KiB time=00:00:04.56 bitrate=1377.8kbits/s speed=0.0215x elapsed=0:03:32.54    \nframe=  140 fps=0.7 q=47.6 size=     768KiB time=00:00:04.60 bitrate=1367.8kbits/s speed=0.0216x elapsed=0:03:33.12    \nframe=  140 fps=0.7 q=47.6 size=     768KiB time=00:00:04.60 bitrate=1367.8kbits/s speed=0.0215x elapsed=0:03:33.65    \nframe=  140 fps=0.7 q=47.6 size=     768KiB time=00:00:04.60 bitrate=1367.8kbits/s speed=0.0215x elapsed=0:03:34.16    \nframe=  140 fps=0.7 q=47.6 size=     768KiB time=00:00:04.60 bitrate=1367.8kbits/s speed=0.0214x elapsed=0:03:34.71    \nframe=  140 fps=0.7 q=47.6 size=     768KiB time=00:00:04.60 bitrate=1367.8kbits/s speed=0.0214x elapsed=0:03:35.23    \nframe=  141 fps=0.7 q=43.0 size=     768KiB time=00:00:04.63 bitrate=1357.9kbits/s speed=0.0215x elapsed=0:03:35.75    \nframe=  141 fps=0.7 q=43.0 size=     768KiB time=00:00:04.63 bitrate=1357.9kbits/s speed=0.0214x elapsed=0:03:36.32    \nframe=  141 fps=0.7 q=43.0 size=     768KiB time=00:00:04.63 bitrate=1357.9kbits/s speed=0.0214x elapsed=0:03:36.88    \nframe=  141 fps=0.6 q=43.0 size=     768KiB time=00:00:04.63 bitrate=1357.9kbits/s speed=0.0213x elapsed=0:03:37.39    \nframe=  141 fps=0.6 q=43.0 size=     768KiB time=00:00:04.63 bitrate=1357.9kbits/s speed=0.0213x elapsed=0:03:37.91    \nframe=  141 fps=0.6 q=43.0 size=     768KiB time=00:00:04.63 bitrate=1357.9kbits/s speed=0.0212x elapsed=0:03:38.45    \nframe=  141 fps=0.6 q=43.0 size=     768KiB time=00:00:04.63 bitrate=1357.9kbits/s speed=0.0212x elapsed=0:03:38.99    \nframe=  141 fps=0.6 q=43.0 size=     768KiB time=00:00:04.63 bitrate=1357.9kbits/s speed=0.0211x elapsed=0:03:39.54    \nframe=  141 fps=0.6 q=43.0 size=     768KiB time=00:00:04.63 bitrate=1357.9kbits/s speed=0.021x elapsed=0:03:40.13    \nframe=  141 fps=0.6 q=43.0 size=     768KiB time=00:00:04.63 bitrate=1357.9kbits/s speed=0.021x elapsed=0:03:40.66    \nframe=  142 fps=0.6 q=46.5 size=     768KiB time=00:00:04.66 bitrate=1348.2kbits/s speed=0.0211x elapsed=0:03:41.23    \nframe=  142 fps=0.6 q=46.5 size=     768KiB time=00:00:04.66 bitrate=1348.2kbits/s speed=0.021x elapsed=0:03:41.80    \nframe=  142 fps=0.6 q=46.5 size=     768KiB time=00:00:04.66 bitrate=1348.2kbits/s speed=0.021x elapsed=0:03:42.41    \nframe=  142 fps=0.6 q=46.5 size=     768KiB time=00:00:04.66 bitrate=1348.2kbits/s speed=0.0209x elapsed=0:03:42.94    \nframe=  142 fps=0.6 q=46.5 size=     768KiB time=00:00:04.66 bitrate=1348.2kbits/s speed=0.0209x elapsed=0:03:43.47    \nframe=  143 fps=0.6 q=47.4 size=     768KiB time=00:00:04.70 bitrate=1338.7kbits/s speed=0.021x elapsed=0:03:43.99    \nframe=  144 fps=0.6 q=47.6 size=     768KiB time=00:00:04.73 bitrate=1329.3kbits/s speed=0.0211x elapsed=0:03:44.51    \nframe=  145 fps=0.6 q=47.4 size=     768KiB time=00:00:04.76 bitrate=1320.0kbits/s speed=0.0212x elapsed=0:03:45.03    \nframe=  145 fps=0.6 q=47.4 size=     768KiB time=00:00:04.76 bitrate=1320.0kbits/s speed=0.0211x elapsed=0:03:45.58    \nframe=  145 fps=0.6 q=47.4 size=     768KiB time=00:00:04.76 bitrate=1320.0kbits/s speed=0.0211x elapsed=0:03:46.16    \nframe=  146 fps=0.6 q=44.7 size=     768KiB time=00:00:04.80 bitrate=1310.8kbits/s speed=0.0212x elapsed=0:03:46.68    \nframe=  146 fps=0.6 q=44.7 size=     768KiB time=00:00:04.80 bitrate=1310.8kbits/s speed=0.0211x elapsed=0:03:47.19    \nframe=  146 fps=0.6 q=44.7 size=     768KiB time=00:00:04.80 bitrate=1310.8kbits/s speed=0.0211x elapsed=0:03:47.74    \nframe=  146 fps=0.6 q=44.7 size=     768KiB time=00:00:04.80 bitrate=1310.8kbits/s speed=0.021x elapsed=0:03:48.27    \nframe=  147 fps=0.6 q=44.9 size=     768KiB time=00:00:04.83 bitrate=1301.8kbits/s speed=0.0211x elapsed=0:03:48.85    \nframe=  147 fps=0.6 q=44.9 size=     768KiB time=00:00:04.83 bitrate=1301.8kbits/s speed=0.0211x elapsed=0:03:49.42    \nframe=  149 fps=0.6 q=45.1 size=     768KiB time=00:00:04.90 bitrate=1284.0kbits/s speed=0.0213x elapsed=0:03:49.96    \nframe=  149 fps=0.6 q=45.1 size=     768KiB time=00:00:04.90 bitrate=1284.0kbits/s speed=0.0213x elapsed=0:03:50.47    \nframe=  149 fps=0.6 q=45.1 size=     768KiB time=00:00:04.90 bitrate=1284.0kbits/s speed=0.0212x elapsed=0:03:51.02    \n[mp4 @ 00000263b3639740] Starting second pass: moving the moov atom to the beginning of the file\n[out#0/mp4 @ 00000263b362ab00] video:902KiB audio:0KiB subtitle:0KiB other streams:0KiB global headers:2KiB muxing overhead: 0.571585%\nframe=  150 fps=0.6 q=47.4 Lsize=     907KiB time=00:00:04.93 bitrate=1506.5kbits/s speed=0.0213x elapsed=0:03:51.28    \nx265 [info]: frame I:      1, Avg QP:43.74  kb/s: 6465.12 \nx265 [info]: frame P:     36, Avg QP:42.60  kb/s: 4154.52 \nx265 [info]: frame B:    113, Avg QP:47.27  kb/s: 579.89  \nx265 [info]: Weighted P-Frames: Y:0.0% UV:0.0%\n\nencoded 150 frames in 230.85s (0.65 fps), 1477.04 kb/s, Avg QP:46.13\n",
  "seconds": 231.83429622650146,
  "probe_out": {}
}